<?xml version="1.0" standalone="no"?>
<!DOCTYPE svg PUBLIC "-//W3C//DTD SVG 20010904//EN"
 "http://www.w3.org/TR/2001/REC-SVG-20010904/DTD/svg10.dtd">
<svg version="1.0" xmlns="http://www.w3.org/2000/svg"
 width="278.000000pt" height="286.000000pt" viewBox="0 0 278.000000 286.000000"
 preserveAspectRatio="xMidYMid meet">

<g transform="translate(0.000000,286.000000) scale(0.100000,-0.100000)"
fill="#f7494a" stroke="none">
<path d="M1642 2778 c-8 -31 -11 -33 -53 -31 -188 8 -343 4 -428 -11 -312 -55
-616 -236 -801 -476 -19 -25 -38 -47 -41 -50 -10 -8 -57 -85 -93 -153 -132
-245 -184 -554 -137 -825 23 -134 72 -296 105 -345 12 -18 33 -36 48 -41 36
-13 83 8 98 44 10 24 7 41 -25 126 -62 165 -78 262 -72 454 6 203 31 311 112
475 92 186 179 293 335 412 223 170 522 255 804 228 l78 -7 -7 -35 c-3 -19 -9
-41 -12 -49 -4 -12 -1 -13 18 -5 20 9 142 37 287 66 17 4 32 8 32 10 0 1 -17
20 -38 41 -20 22 -71 76 -111 122 -41 45 -78 82 -82 82 -5 0 -12 -15 -17 -32z"/>
<path d="M1200 2318 c-107 -29 -117 -32 -195 -69 -60 -28 -163 -95 -186 -121
-9 -10 -20 -18 -24 -18 -7 0 -31 -25 -90 -91 -171 -195 -251 -492 -199 -745
14 -71 78 -251 93 -264 4 -3 12 -16 19 -30 26 -54 53 -88 138 -174 71 -72 124
-116 142 -116 6 0 12 -4 12 -9 0 -4 30 -23 68 -41 37 -17 75 -36 84 -41 10 -5
27 -9 37 -9 11 0 23 -4 26 -10 3 -5 19 -10 34 -10 15 0 32 -5 38 -11 16 -16
304 -16 373 0 86 21 125 34 205 72 55 26 138 78 143 91 2 4 8 8 14 8 19 0 163
154 202 214 47 74 96 174 96 197 0 10 4 20 8 23 20 12 37 157 36 301 -1 142
-2 155 -33 245 -37 106 -79 191 -116 234 -14 16 -25 33 -25 37 0 14 -143 152
-190 184 -25 16 -47 32 -50 36 -5 5 -127 65 -165 80 -26 10 -77 24 -138 38
-57 13 -308 13 -357 -1z m280 -348 c0 -59 1 -60 28 -60 89 -1 194 -76 228
-166 20 -54 15 -60 -56 -69 -25 -3 -64 -10 -87 -15 -69 -16 -82 -13 -97 23
-14 31 -14 30 -15 -46 -1 -54 3 -79 12 -81 99 -26 176 -64 215 -105 58 -62 67
-87 67 -186 -1 -80 -4 -95 -27 -130 -36 -56 -56 -77 -108 -112 -42 -28 -62
-36 -132 -50 -27 -5 -28 -8 -28 -64 l0 -59 -95 0 -95 0 0 59 0 58 -47 12 c-27
7 -57 17 -68 23 -11 6 -29 16 -40 22 -29 16 -105 97 -105 112 0 7 -5 14 -11
16 -6 2 -11 26 -12 53 -2 47 -1 49 30 55 17 4 74 10 127 14 l95 7 7 -36 c12
-67 24 -46 24 44 l0 89 -32 8 c-42 9 -127 49 -153 71 -11 10 -33 42 -49 71
-25 48 -28 61 -24 125 4 81 27 138 72 180 35 33 127 77 161 77 24 0 25 3 25
60 l0 60 95 0 95 0 0 -60z"/>
<path d="M1282 1670 c0 -19 2 -27 5 -17 2 9 2 25 0 35 -3 9 -5 1 -5 -18z"/>
<path d="M1480 1236 c0 -42 3 -76 6 -76 15 0 43 48 44 75 0 32 -5 42 -32 64
-17 13 -18 8 -18 -63z"/>
<path d="M2446 2009 c-30 -36 -31 -47 -10 -97 20 -46 47 -129 69 -207 25 -92
32 -357 11 -467 -31 -164 -75 -277 -159 -414 -169 -273 -462 -467 -787 -520
-91 -15 -352 -16 -366 -1 -3 3 -1 22 6 42 7 20 10 38 8 41 -4 4 -330 -65 -336
-71 -2 -2 23 -32 55 -67 33 -35 86 -91 117 -125 32 -35 62 -60 67 -57 4 2 11
20 15 40 l6 35 47 -8 c76 -13 359 -9 436 6 332 66 628 251 822 516 191 261
285 594 253 900 -20 195 -99 448 -149 474 -38 21 -77 13 -105 -20z"/>
</g>
</svg>
